<svg xmlns="http://www.w3.org/2000/svg" viewBox="0 0 166.09 95.94"><defs><style>.cls-1{fill:#fff;}</style></defs><title>Asset 20</title><g id="Layer_2" data-name="Layer 2"><g id="Layer_1-2" data-name="Layer 1"><path class="cls-1" d="M38.2,74.45a3.34,3.34,0,0,1,.13,3.14,12.73,12.73,0,0,0-.86,4.13,6.89,6.89,0,0,1-1.82,4.7c-1.17.39-2-.42-2.9-.68-1.15-.33-.92-1.94-1.34-3-.28-.7.38-1.65-.66-2.17.77-.41.61-1,.63-1.56-.3-.73-1.51-.25-1.58-1.29a12,12,0,0,0-1.23-5.89l.5-.81c-.18-.32-.49-.18-.75-.21-.52-.29-.12-1.14-.79-1.34.11-.61.88-.07,1-.65l-1.08-.51.38-.38c-.92-2.57-1.85-5.12-2.92-8.09-.65,2.86-1.88,5.1-2.71,7.54l-.9.23c.41,2.68-.58,5.29-.59,8-.4.51-1.08,0-1.62.41.55,1.77.95,3.5.06,5.35-.37.76,0,1.84-.08,2.76s.39,1.85-.51,2.59a.82.82,0,0,0,0,.79c1.33,2,0,3.13-1.34,4.42H14.83l-1.24-1.24V88.54c-.28-.42-.55-.42-1-.38C12.45,86.35,10.73,85,11.33,83c-.83-1.24-2.4-2.16-1.29-4.13-.95-.83-1.39-2.15-2.11-3.63V72.71c-1.31-.46-1.37-1.91-1.55-2.87-.23-1.19-1-2.34-.69-3.65.13-.51-.37-.81-.48-1.19-.56-1.83-1.42-3.62-1.1-6.08l.82-.83L4.24,58a1.24,1.24,0,0,1,.3-1.86c-.18-.38-.81-.56-.48-1.1-.44-.61-1.1-.13-1.65-.48v-5c-.28-.45-.56-.41-1-.41A30,30,0,0,0,.71,45.3c-.24-.92,0-1.89-.54-2.86a1.84,1.84,0,0,1,.62-2.27c-1-.89-.63-2-.69-3.22H3.89c.66.46.72,1.36,1.25,1.95.08.66-.87,1-.42,2.07C7,43.2,6.09,46.4,6.27,49.39c1.18.89,1.33,2.25,1.65,3.51.23,1-.4,2,.35,2.93.61.72-.17,1.75.72,2.52.54.47-.23,1.3-.5,1.91,0,.58.41.54.88.54.7,1.55,1.52,3.11,1.33,4.93a3.51,3.51,0,0,0,.8,2.19,1.58,1.58,0,0,1-.22,2.16l1,.36c.42.85-.15,1.51-.53,2.09,1.11,1.65,2.69,2.88,2.41,5,.43,0,.7.14.93-.14.43-.63-.26-.92-.57-1.36,1.44-2,.73-4.78,2.83-6.46,0-.76.38-1.59-.42-2.26,1.43-1.76.49-4.31,2-6,.09-2,1.23-3.77,1.84-5.65.74-2.27,1.69-4.45,3.67-5.91.48-.11.72.17,1,.46a2.21,2.21,0,0,1,1.68-.48c.62.21.3.93.76,1.35a1.1,1.1,0,0,1-.34,1.65c.53.46.27,1.63,1.61,1.52a7.93,7.93,0,0,0,.89,4c.62,1.15.16,2.81,1.31,4V65l1,.74a3.18,3.18,0,0,1-.4,2.9c.18.86.93,1,1.57,1.25.32.45-.19,1.11.42,1.51.41-1.06.46-2.26,1.36-3.09,0-1.3-.31-2.7.09-3.87s.11-2.47,1-3.5c.23-.27.06-.9,0-1.37a22.54,22.54,0,0,1,1.36-7.53c.42-1.37-.33-2.95.87-4.09a15.18,15.18,0,0,1,1.09-5.68,5.08,5.08,0,0,0,0-1.64l1.18-2.19c-1.08-1.12-.24-2.34-.17-3.61s.74-2.58.7-3.91c.21-.49,1,0,1-.52.24-.69-.43-.85-.55-1.46A3.06,3.06,0,0,0,42.51,26c-.2-1.09.83-1.78.67-2.86-.06-.33.68-.79,1.12-1.25-.29-.79-1-1.53-.43-2.81l1.59-1.18c-.32-.75-.76-.57-1.23-.83a4.17,4.17,0,0,1,1.6-3.36c-.37-.58-.85-1.23-.31-1.87a1.57,1.57,0,0,0,.38-1.25c-.17-2,.13-3.76,1.67-4.76,0-1.2-.84-.57-1.12-1.27,0-1,1.41-1.85,1.12-3.21L49,0h2.22c.56.56.18,1.46.73,2.17a2.05,2.05,0,0,1-.24,2.31c-.38.41-.18.86-.23,1.3-.41,3.58-.76,7.16-2.11,10.56a3.5,3.5,0,0,0-.12,1.34,13,13,0,0,1-1,6,5.25,5.25,0,0,0,0,2c-.21.58-.64.44-1.13.62-.27,1.36,1.17,2.75.45,4s-.28,2.86-1.62,3.9v2.89l-1.07.39v1.2c.14.51.86.07,1.08.54-.19.41-.65.21-1,.47v4c-.8.32-.42,1.28-1.08,1.59,1.51,2-1.26,3.18-.94,5a4.28,4.28,0,0,1,.21,2.44l-1,1c.15.38.75.65.49,1.12-.68,1.19-.37,2.57-.9,3.81s.07,2.6-.25,3.81a23.4,23.4,0,0,0-1.13,4.56c0,.51-.73,1-1.07,1.39.05.73.78,1.1.58,1.83A13.82,13.82,0,0,1,38.2,74.45Z"/><path class="cls-1" d="M72.71,67.21c-.13-.75.77-1.18.58-2s1.33-.19,1.09-1.16c1.32-1.64,1.79-3.72,2.74-5.55.3-.58.77-.32,1.17-.79.08-2.49-.41-5.25,1.24-7.62-1.4-.7-1.8-2.43-3.32-2.67-.38-.07-.58.11-.84.43-1.07-.7-2.3-.38-3.68-.45l-.86,1.09A2.43,2.43,0,0,1,69,48c-.41,1.34-1.48,1.55-2.7,1.62-1.08,1-2,2.33-3.76,2.24-.27,0-.59.4-.83.66-1,1.18-1,1.18-2.16,1.48l-2.45-2.45V50.47c.66-.66,1.34-1.3,2-2s1.55-.6,1.57-2l.53,1.39c2-2.36,4.34-4.25,7.59-4.32,1.12,0,2-.8,3.12-.61,1.24-1.17,2.48-.53,3.77,0l.73-.51c2.61.43,4.91,1.29,6.37,3.71-.16.95.72,1.83.63,3s-1.27,1.91-.64,2.73c.27.88,1.56.09,1.16,1.09,0,.93-.86.33-1,.8.07.66.85.1,1,.6.24.93-.79,1.1-1,1.76,1.06.5-.19,1-.08,1.48a8.5,8.5,0,0,1,0,1.81l-1.08,1.08.44.54c-.72,1.41-1.85,2.73-2.15,4.42-1.92,1-1.91,3.32-3.3,4.74-.92.94-1.37,2.18-3,2.42-.74.11-1.9,1.15-1.92,1.8-.05,2.27-2.16,2.48-3.28,3.6a10.94,10.94,0,0,1-2,1.06c-.46.26-.44-.45-.82-.32-.38.37-.08.86-.18,1.29-.17.26-.43.26-.71.3-.79.13-1.22-.69-1.94-.7-.24-.38.3-.35.2-.83-.36-.31-1.35-.27-1.47-1.28.26-.87,1.22-1.25,1.68-2,.25-.64-.73-.82-.53-1.53.39-.49,1.32-.39,1.58-1.07l-1.6-3.16c0-.83.76-.38,1-.71.72-1.29-.64-1.74-1-2.44,0-.92.85-1,1.05-1.68-.18-.22-.5-.39-.51-.84-.05-1.51.3-3.07-.51-4.52a1.39,1.39,0,0,1,.08-1.31c1.1-1,0-1.79-.15-2.67.06-1.21,1.27-1.9,1.2-3.11h3.12l1.3,1.76a10.65,10.65,0,0,1-.08,3.35c-.38,1.26.64,2.32,0,3.46-.24.55-1,.76-1,1.49s.76.3,1.19,1c.52.9-1.8,2.2.18,3.37-1.95,1.39.25,2.58-.4,4.11,1.45-.85,2.72-1.26,3.1-2.76C71.36,67.56,72.25,67.62,72.71,67.21Z"/><path class="cls-1" d="M162.53,47.59c.39,1.52-.36,2.57-.58,3.68a11.93,11.93,0,0,0-.43,3.13c.09,1.2-.8,2.15-.63,3.4.15,1,.46,2.21-.67,3l.63.8a6.68,6.68,0,0,1-1.55,2.31c-.1,1.09.68.63,1,1-.13.52-.51,1-.46,1.62.2,2.45-.05,4.81-1.74,6.65.28.59.72.41,1.15.67-1,.81.13,2.49-1.56,3.19-1.1-.67-2.71-.64-3.81-1.78-.44-1,.34-1.92.31-2.78-.09-2.29.73-4.45.74-6.74a11.44,11.44,0,0,1,1-5.14,1.49,1.49,0,0,0,.06-.53c0-2.44-.23-4.91.93-7.69l.64-.58c-.62-.86-.34-1.62-.07-2.53.34-1.18.15-1.24.75-2.15-1.73-3.3.94-6.32.53-9.5l1.06-.39c.32-1-.81-1.15-1-2l1.46-4.28c-1.3-1.43.94-2.9.07-4.37l.94-.86a5.42,5.42,0,0,1,4,.76l.83,1.67c-.78,1-.41,2.62-1.72,3.3.71,1.43.44,2.66,0,4.13s-.41,2.76-1.35,4c2,2.15-.43,3.92-.53,6-.18.39-1-.13-1.06.79C161.45,46.92,162.23,47.12,162.53,47.59Z"/><path class="cls-1" d="M131.37,40.62a3,3,0,0,0,.42-2.53c-.51-.78-1.68-.69-2.13-1.65.84-.31.55-1,.53-1.61-1.41-1.55-3-3-5-3.32-2.38-.37-4.75-1-7.2-.83-.6,0-1,.69-1.72.57-2.28-.35-4.4.37-6.51,1.09-2.36.81-4.86,1.23-7,2.63a8.2,8.2,0,0,1-2.48.71.57.57,0,0,1-.68-.29,1.26,1.26,0,0,0,.32-1.88c-.3-.12-.76.13-.81-.35.17-.42.5-.2.76-.27a4.35,4.35,0,0,0,.81-3.27c-.23-1.31,1-2.35.43-3.84a6.56,6.56,0,0,1-1.91-2.52c-1,.44-1.37,1.53-1.89,1.49-1.55,1.5-.57,3.43-1.75,5,.33.34.94.65.59,1.29l-1,.42a35.4,35.4,0,0,1,0,4.12c-.14,1.19-.13,2.84-1.31,3.25-.91.32-1.39,1-2.19,1.36a27.94,27.94,0,0,0-2.6,1.41A4.15,4.15,0,0,0,90.68,45c1.64.77,1.85-1.16,3-.91a1.2,1.2,0,0,1-.05,1.66c-.31,0-.6,0-.78.25,0,2.25,0,2.25.51,3.37l-1.2,1.26c.39.8-.06,1.57-.43,2.38h.94c-.08.65-.62,1.2-.43,1.89s-.56,1.07-.93,1.56,0,1.39-.37,2.08a4.18,4.18,0,0,0,.2,4.08c-.64,1.53-2,2.62-2.39,4.26-.88.07-1.88-.12-2.46.28-.92.63-1.8.14-2.67.39l-1.34,1.34v2.35c1.86.55,3.64,1.18,5.46.53.12-.37-.13-.84.45-.8.13.35.24.68.37,1l.63-.57a.67.67,0,0,1,.15,1c-.43.43-1.12-.16-1.6.51.74,1.5-1.42,3.08.17,4.74-1,1-1,2.68-2.39,3.52a5.39,5.39,0,0,1-2.16,5.54,18,18,0,0,1,.51,4.53c0,.08-.13.13-.2.2l-.74.2c-.71,1.22.46,1.75.89,2.36.19.77-.23,1.46.33,2H86.4l1.37-1.37c.14-.83-.19-1.65.21-2.45a16.38,16.38,0,0,0,1.49-8.59c0-.45,0-.9,0-1.33.68-.24,1.3-.4,1.66-1V76.53l1.73-1.41c-.15-.8.23-1.48-.31-2-.23-.17-.74.19-.75-.41.36-.58,1-.65,1.56-1V70.61l.34.31,1-1.92c1.92.68,3.39-.45,5-.49a2.59,2.59,0,0,0,2-1.26c.2-.39.63-.37,1-.31,1,.15,1.6-.61,2.39-.86.11-.46-.21-1,.23-1.33.66-.11,1.29-.16,1.72.5a1.5,1.5,0,0,1,.4-.36,4.69,4.69,0,0,1,.76-.19c.43-.09,1,.24,1.3-.22,1.25-1.74,3.7-1.08,5.08-2.57,1.25.19,1.58-.78,2-1.66l.46.45,2.53-1.29c.18-.54-.12-1,.31-1.37.36.12.45.62,1,.5,2.42-1.57,4-4.25,6.63-5.74-.37-.4-.73-.6-.63-1.11.27-1.13,1.43-.78,2.27-1.14V47.62c.53-.47,1.22.09,1.62-.48V44.39c.32-.56,1.09-.76,1.14-1.56C132.18,42,130.87,41.43,131.37,40.62Zm-4.11,3.63c-2.6,2.73-4.09,6.25-6.7,9-1.21.13-2.22,1.09-3.49,1.53-.3,1.79-2.58,1.73-3.21,3.21l-1,0a7.64,7.64,0,0,0-1,.15c-1.59.31-2.69,1.13-4.73,3.17l-.59-.55c-.81-.1-1,.65-1.69,1.11h-1.64a.87.87,0,0,0-.23.37,1.06,1.06,0,0,0,0,.19,4.74,4.74,0,0,1,0,.85h0a3.71,3.71,0,0,1-2.42.62,4.91,4.91,0,0,1-1-.23c-1.21-.4-2.7.47-3.88,1.75l-1-.94V61c.16-.28.46-.19.91-.22.3-2.66,1.41-5.22,1.25-8,0-.19-.08-.46,0-.55,1.2-1.15.3-2.3-.09-3.46l1.08-.39c.43-1.15-.41-2.56.69-3.6-.07-.71-.94-1.18-.55-2,.09-.11.16-.3.31-.38a21.53,21.53,0,0,1,4.66-2.24,12.55,12.55,0,0,0,3.71-1.77c.73-.51,1.38-.32,2.27-.45.21-.33.51-.81.78-1.22,2.19.6,4-.4,5.89-.47.55-.33.77-.91,1.06-1.93.29.74.48,1.26.69,1.79l1.58-1.48c.59-.21.78.39,1.09.52.65.22.82-.42,1.27-.54.8.39,1.79.56,2,1.65,1.07-.37,1.74,1.11,2.74.53,1.1,1.17.68,2.77,1.46,4,.2.32,0,.81-.31,1.24A1.89,1.89,0,0,0,127.26,44.25Z"/><path class="cls-1" d="M128.45,62.1a1.33,1.33,0,0,0-.47-.19c-.85,0-1,1.47-2,1-.47-.19.15-1.05-.92-1a3.3,3.3,0,0,1-1.59.73,1.48,1.48,0,0,1-.79,2c-1.9,1-2.76,2.79-3.61,4.61a1.46,1.46,0,0,1-1.41,1l-2.9,5.78c-.38.81.08,1.72-.43,2.61s-1.34,1.55-.63,2.64c.29.14.73,0,.92.44a3.12,3.12,0,0,1-1.94,2.34c1.25.9.61,2.2.78,2.83a20.84,20.84,0,0,0,3.26,4c1.23-.16,2.52-.92,4.2-.49-.4-1.23,0-2.2.79-2.24,1.24-.06,1.73-.86,2.4-1.56-.48-1.23,1-1.59,1.16-2.6.1-.64-.58-.85-.47-1.38,1.86-.72,1.47-2.35,1.58-4l1.08-.76c0-1.6.07-3,0-4.39a12.91,12.91,0,0,1,1.69-6.83A3.48,3.48,0,0,0,128.45,62.1Zm-6.71,16.34c-2.1,1.46-.86,4.69-3,6.33L118,84c.28-1.67,1.16-3.24,1.06-5.16l1.13-.92c-.05-.91.2-1.75-.44-2.31L121,74.17l.74.74Z"/><path class="cls-1" d="M149,57.5a3.34,3.34,0,0,0-2.75.64c-.49-.8-1.14-.72-1.9-.66a14.36,14.36,0,0,1-3.25,3.9c-.26.26-.69.49-.76.79-.43,2-2.14,3.07-3.33,4.43-.05,1.86-1.83,2.81-2.16,5.08.43,1.34-1.78,3.28-.12,5.28A3.13,3.13,0,0,1,133,79a9.88,9.88,0,0,0,4.15,7.15c1.1-1.31,2.75-.61,4.22-.91-.13-.57-.93-.85-.28-1.55.57-.27,1.4.3,2.14-.44,1.06-.7.67-2.32,1.61-3.34s.25-2.86,1.7-3.81V73.56l1.1-.77a22.47,22.47,0,0,1,1.46-11l.67-.67A4.94,4.94,0,0,0,149,57.5Zm-8.15,16.81c.25,1.28-.41,2.45-.79,3.68a2.46,2.46,0,0,1-1.17,1.75c-.23-.23-.49-.47-.77-.73l1.29-5.34.88-.7c0-.35,0-.7,0-1a1.42,1.42,0,0,0-.57-1.39l1.34-1.34c1.84.89.09,3,1.39,4.09Z"/><path class="cls-1" d="M56.91,54.75a3.13,3.13,0,0,0-2.66.48,2.48,2.48,0,0,0-2.75-.34V56a30,30,0,0,0-2.9,3,23.8,23.8,0,0,0-1.81,3.37c-2,.42-2,2.59-3,3.81a5.36,5.36,0,0,0-1.18,4.89c-.73.79-1.77,1.35-.87,2.53l.75-.63c.35,1.84-.88,2.88-1.69,4,1.4,2.09,1.37,4.83,3.8,6.08l.49-.44.58.51L46.75,82c.62,1,1.52.52,2.42.47,0-.47.09-.91.14-1.35l2.11-1c.16-.57-.07-1.22.56-1.71a2.71,2.71,0,0,0,1.14-2.28,2.8,2.8,0,0,1,.63-2,2,2,0,0,0-.08-2.74l1.58-1.55c.39-1.71-.36-3.15.67-4.34a1.74,1.74,0,0,1-.24-2.44c.58-.86-.2-2.06.83-2.73-.13-1.49,1.46-2.15,1.68-3.49A6,6,0,0,0,56.91,54.75Zm-7,12.34V71c-2.13,1.72-1.41,4.7-3.14,6.51-.77-.58-1.31-1.36-.65-2.09s0-1.72.68-2.53a2.92,2.92,0,0,0,.83-2.4c1.11-1.06.36-2.1-.09-3.27l2.63-1.35a1.45,1.45,0,0,0,1.46.54C51.1,67.23,50.44,66.72,49.9,67.09Z"/></g></g></svg>